<mxfile host="Electron" agent="Mozilla/5.0 (Macintosh; Intel Mac OS X 10_15_7) AppleWebKit/537.36 (KHTML, like Gecko) draw.io/26.0.9 Chrome/128.0.6613.186 Electron/32.2.5 Safari/537.36" version="26.0.9">
  <diagram id="C5RBs43oDa-KdzZeNtuy" name="Page-1">
    <mxGraphModel dx="707" dy="564" grid="1" gridSize="10" guides="1" tooltips="1" connect="1" arrows="1" fold="1" page="1" pageScale="1" pageWidth="827" pageHeight="1169" math="0" shadow="0">
      <root>
        <mxCell id="WIyWlLk6GJQsqaUBKTNV-0" />
        <mxCell id="WIyWlLk6GJQsqaUBKTNV-1" parent="WIyWlLk6GJQsqaUBKTNV-0" />
        <mxCell id="gurMtBkQaNvhxzcTF5mW-13" value="Loan" style="swimlane;childLayout=stackLayout;horizontal=1;startSize=30;horizontalStack=0;rounded=1;fontSize=14;fontStyle=0;strokeWidth=2;resizeParent=0;resizeLast=1;shadow=0;dashed=0;align=center;arcSize=4;whiteSpace=wrap;html=1;fillColor=#CCCCFF;" parent="WIyWlLk6GJQsqaUBKTNV-1" vertex="1">
          <mxGeometry x="200" y="240" width="110" height="90" as="geometry" />
        </mxCell>
        <mxCell id="gurMtBkQaNvhxzcTF5mW-14" value="&lt;u&gt;loanID&lt;/u&gt;&lt;br&gt;loanDate&lt;div&gt;returnDate&lt;/div&gt;" style="align=left;strokeColor=none;fillColor=none;spacingLeft=4;fontSize=12;verticalAlign=top;resizable=0;rotatable=0;part=1;html=1;" parent="gurMtBkQaNvhxzcTF5mW-13" vertex="1">
          <mxGeometry y="30" width="110" height="60" as="geometry" />
        </mxCell>
        <mxCell id="gurMtBkQaNvhxzcTF5mW-15" value="Book" style="swimlane;childLayout=stackLayout;horizontal=1;startSize=30;horizontalStack=0;rounded=1;fontSize=14;fontStyle=0;strokeWidth=2;resizeParent=0;resizeLast=1;shadow=0;dashed=0;align=center;arcSize=4;whiteSpace=wrap;html=1;fillColor=#CCCCFF;" parent="WIyWlLk6GJQsqaUBKTNV-1" vertex="1">
          <mxGeometry x="470" y="170" width="100" height="90" as="geometry" />
        </mxCell>
        <mxCell id="gurMtBkQaNvhxzcTF5mW-16" value="&lt;u&gt;bookID&lt;/u&gt;&lt;div&gt;title&lt;/div&gt;&lt;div&gt;author&lt;/div&gt;" style="align=left;strokeColor=none;fillColor=none;spacingLeft=4;fontSize=12;verticalAlign=top;resizable=0;rotatable=0;part=1;html=1;" parent="gurMtBkQaNvhxzcTF5mW-15" vertex="1">
          <mxGeometry y="30" width="100" height="60" as="geometry" />
        </mxCell>
        <mxCell id="gurMtBkQaNvhxzcTF5mW-17" value="Member" style="swimlane;childLayout=stackLayout;horizontal=1;startSize=30;horizontalStack=0;rounded=1;fontSize=14;fontStyle=0;strokeWidth=2;resizeParent=0;resizeLast=1;shadow=0;dashed=0;align=center;arcSize=4;whiteSpace=wrap;html=1;fillColor=#CCCCFF;" parent="WIyWlLk6GJQsqaUBKTNV-1" vertex="1">
          <mxGeometry x="470" y="310" width="140" height="100" as="geometry" />
        </mxCell>
        <mxCell id="gurMtBkQaNvhxzcTF5mW-18" value="&lt;u&gt;memberID&lt;/u&gt;&lt;div&gt;name(first, last)&lt;/div&gt;&lt;div&gt;&lt;span style=&quot;background-color: transparent; color: light-dark(rgb(0, 0, 0), rgb(255, 255, 255));&quot;&gt;membershipDate&lt;/span&gt;&lt;br&gt;&lt;/div&gt;" style="align=left;strokeColor=none;fillColor=none;spacingLeft=4;fontSize=12;verticalAlign=top;resizable=0;rotatable=0;part=1;html=1;" parent="gurMtBkQaNvhxzcTF5mW-17" vertex="1">
          <mxGeometry y="30" width="140" height="70" as="geometry" />
        </mxCell>
        <mxCell id="gurMtBkQaNvhxzcTF5mW-20" value="" style="edgeStyle=entityRelationEdgeStyle;fontSize=12;html=1;endArrow=ERzeroToMany;rounded=0;startArrow=ERmandOne;startFill=0;entryX=1;entryY=0.5;entryDx=0;entryDy=0;endFill=0;" parent="WIyWlLk6GJQsqaUBKTNV-1" source="gurMtBkQaNvhxzcTF5mW-17" target="gurMtBkQaNvhxzcTF5mW-14" edge="1">
          <mxGeometry width="100" height="100" relative="1" as="geometry">
            <mxPoint x="410" y="380" as="sourcePoint" />
            <mxPoint x="390" y="390" as="targetPoint" />
            <Array as="points">
              <mxPoint x="250" y="390" />
              <mxPoint x="190" y="380" />
              <mxPoint x="370" y="360" />
              <mxPoint x="350" y="310" />
              <mxPoint x="380" y="390" />
              <mxPoint x="240" y="380" />
            </Array>
          </mxGeometry>
        </mxCell>
        <mxCell id="TTn-5bRHLLxOXYlM2nSG-1" value="to_member" style="edgeLabel;html=1;align=center;verticalAlign=middle;resizable=0;points=[];" parent="gurMtBkQaNvhxzcTF5mW-20" vertex="1" connectable="0">
          <mxGeometry x="0.035" y="1" relative="1" as="geometry">
            <mxPoint x="-10" y="18" as="offset" />
          </mxGeometry>
        </mxCell>
        <mxCell id="gurMtBkQaNvhxzcTF5mW-21" value="" style="edgeStyle=entityRelationEdgeStyle;fontSize=12;html=1;endArrow=ERzeroToMany;rounded=0;startArrow=ERmandOne;startFill=0;entryX=1;entryY=0;entryDx=0;entryDy=0;endFill=0;" parent="WIyWlLk6GJQsqaUBKTNV-1" source="gurMtBkQaNvhxzcTF5mW-15" target="gurMtBkQaNvhxzcTF5mW-14" edge="1">
          <mxGeometry width="100" height="100" relative="1" as="geometry">
            <mxPoint x="480" y="410" as="sourcePoint" />
            <mxPoint x="320" y="295" as="targetPoint" />
            <Array as="points">
              <mxPoint x="260" y="400" />
              <mxPoint x="200" y="390" />
              <mxPoint x="380" y="370" />
              <mxPoint x="360" y="320" />
              <mxPoint x="390" y="400" />
              <mxPoint x="250" y="390" />
            </Array>
          </mxGeometry>
        </mxCell>
        <mxCell id="TTn-5bRHLLxOXYlM2nSG-0" value="lends" style="edgeLabel;html=1;align=center;verticalAlign=middle;resizable=0;points=[];" parent="gurMtBkQaNvhxzcTF5mW-21" vertex="1" connectable="0">
          <mxGeometry x="-0.0184" y="-1" relative="1" as="geometry">
            <mxPoint x="-11" y="-11" as="offset" />
          </mxGeometry>
        </mxCell>
      </root>
    </mxGraphModel>
  </diagram>
</mxfile>
